<svg xmlns="http://www.w3.org/2000/svg" viewBox="0 0 24 24" fill="currentColor">
  <path d="M12 .5C5.65.5.5 5.66.5 12.02c0 5.09 3.29 9.41 7.86 10.94.57.1.78-.25.78-.56 0-.27-.01-1.02-.02-2.01-3.2.7-3.88-1.55-3.88-1.55-.52-1.33-1.28-1.68-1.28-1.68-1.04-.71.08-.7.08-.7 1.15.08 1.76 1.19 1.76 1.19 1.02 1.76 2.67 1.25 3.32.96.1-.74.4-1.25.72-1.54-2.55-.29-5.23-1.28-5.23-5.68 0-1.25.45-2.27 1.18-3.07-.12-.29-.51-1.46.11-3.04 0 0 .97-.31 3.17 1.17a10.98 10.98 0 0 1 5.78 0c2.19-1.48 3.16-1.17 3.16-1.17.63 1.58.24 2.75.12 3.04.74.8 1.18 1.82 1.18 3.07 0 4.41-2.69 5.39-5.26 5.67.42.36.78 1.07.78 2.16 0 1.56-.01 2.81-.01 3.2 0 .31.2.67.79.56a11.53 11.53 0 0 0 7.84-10.94C23.5 5.66 18.35.5 12 .5Z"/>
</svg>